<?xml version="1.0" encoding="iso-8859-1"?>
<!-- Generator: Adobe Illustrator 19.0.0, SVG Export Plug-In . SVG Version: 6.00 Build 0)  -->
<svg version="1.1" id="Layer_1" xmlns="http://www.w3.org/2000/svg" xmlns:xlink="http://www.w3.org/1999/xlink" x="0px" y="0px"
	 viewBox="0 0 473.654 473.654" style="enable-background:new 0 0 473.654 473.654;" xml:space="preserve">
<circle style="fill:#65A844;" cx="236.827" cy="236.827" r="236.827"/>
<path style="fill:#E0E0E0;" d="M357.058,130.896c-29.89-34.931-74.272-57.103-123.858-57.103
	c-90.008,0-162.982,72.97-162.982,162.982c0,51.019,23.455,96.541,60.155,126.428c28.051,22.841,63.831,36.554,102.827,36.554
	c90.015,0,162.982-72.967,162.982-162.982C396.182,196.343,381.433,159.381,357.058,130.896z"/>
<path style="fill:#FFFFFF;" d="M308.328,313.156c51.176-51.176,67.918-122.613,48.73-182.256
	c-29.89-34.935-74.272-57.107-123.858-57.107c-90.008,0-162.982,72.97-162.982,162.982c0,51.019,23.455,96.541,60.155,126.428
	C189.125,380.255,258.382,363.105,308.328,313.156z"/>
<g>
	<path style="fill:#3A3A39;" d="M144.299,154.845c0,0,21.832-33.925,51.707-41.984c0,0,26.424-1.728,55.727,21.862
		c0,0-10.916,54.62-14.36,59.22c0,0-63.775,14.951-67.223,16.678C170.154,210.62,150.043,182.443,144.299,154.845z"/>
	<path style="fill:#3A3A39;" d="M313.215,95.034v31.629c0,0,36.195,27.026,44.235,51.18l28.724,2.3
		C386.171,180.143,369.519,125.519,313.215,95.034z"/>
	<path style="fill:#3A3A39;" d="M285.632,245.697l58.607-7.475c0,0,13.788,24.15,13.788,59.227c0,0-25.852,35.085-48.263,43.712
		l-47.107-28.185L285.632,245.697z"/>
	<path style="fill:#3A3A39;" d="M147.171,275.023c0,0,25.852,36.221,45.387,51.748l-16.656,39.677c0,0-35.051-4.024-52.279-18.402
		c0,0-20.115-24.15-20.115-59.224L147.171,275.023z"/>
	<path style="fill:#3A3A39;" d="M69.033,232.471h9.772c0,0,2.868-39.684,20.676-64.41v-25.878
		C99.48,142.186,73.628,172.671,69.033,232.471z"/>
	<path style="fill:#3A3A39;" d="M223.698,399.547l0.456-3.77c0,0,52.283-6.903,70.098-17.254l7.195,6.301
		C301.447,384.825,269.193,402.277,223.698,399.547z"/>
	<path style="fill:#3A3A39;" d="M178.77,82.387l16.088,0.572l14.663-7.584C209.517,75.375,193.134,77.211,178.77,82.387z"/>
	<path style="fill:#3A3A39;" d="M250.241,136.15l-0.344-1.69c1.926-0.389,47.347-9.375,65.05-8.859l-0.052,1.728
		C297.367,126.757,250.705,136.053,250.241,136.15z"/>
	<path style="fill:#3A3A39;" d="M344.654,239.587l-1.301-1.129c11.159-12.857,13.556-60.667,13.578-61.15l1.724,0.086
		C358.558,179.384,356.209,226.293,344.654,239.587z"/>
	<polygon style="fill:#3A3A39;" points="383.332,300.449 357.088,298.324 357.204,296.601 384.11,298.504 	"/>
	
		<rect x="224.801" y="219.195" transform="matrix(-0.677 -0.736 0.736 -0.677 276.9406 561.6566)" style="fill:#3A3A39;" width="73.835" height="1.724"/>
	<path style="fill:#3A3A39;" d="M294.447,380.625l-1.283-1.152c4.989-5.55,16.297-39.467,16.409-39.812l1.634,0.55
		C310.747,341.625,299.678,374.814,294.447,380.625z"/>
	<path style="fill:#3A3A39;" d="M190.292,328.29l-0.236-1.702c0.606-0.09,61.172-8.395,72.967-14.577l0.808,1.526
		C251.767,319.857,192.794,327.953,190.292,328.29z"/>
	<path style="fill:#3A3A39;" d="M147.698,276.99l-1.66-0.46c0.658-2.367,16.147-58.135,23.642-67.376l1.343,1.084
		C163.752,219.203,147.855,276.418,147.698,276.99z"/>
	<path style="fill:#3A3A39;" d="M225.287,397.281c-28.638-7.46-50.608-31.068-50.832-31.308l1.268-1.171
		c0.221,0.239,21.858,23.481,49.998,30.807L225.287,397.281z"/>
	<path style="fill:#3A3A39;" d="M103.605,289.888c-27.527-26.989-26.772-58.349-26.757-58.655l1.724,0.056
		c-0.015,0.314-0.725,30.934,26.241,57.365L103.605,289.888z"/>
	<path style="fill:#3A3A39;" d="M98.478,169.631l-1.036-1.376c0.206-0.15,20.613-15.306,49.893-14.192l-0.071,1.724
		C118.608,154.601,98.68,169.481,98.478,169.631z"/>
	
		<rect x="179.478" y="96.796" transform="matrix(-0.0402 -0.9992 0.9992 -0.0402 105.8382 296.9785)" style="fill:#3A3A39;" width="32.153" height="1.72"/>
	
		<rect x="120.737" y="345.659" transform="matrix(-0.6679 -0.7442 0.7442 -0.6679 -57.5464 674.0128)" style="fill:#3A3A39;" width="1.724" height="8.373"/>
	<path style="fill:#3A3A39;" d="M223.709,399.45l-0.011,0.097c45.496,2.726,77.749-14.726,77.749-14.726l-0.037-0.034
		c-20.755,9.585-43.85,14.966-68.21,14.966C230.014,399.757,226.854,399.633,223.709,399.45z"/>
	<path style="fill:#3A3A39;" d="M195.77,81.575l0.037,0.89l13.709-7.09c0,0-16.383,1.836-30.751,7.012l15.336,0.546l-0.052-1.286
		L195.77,81.575z"/>
	<path style="fill:#3A3A39;" d="M250.241,136.15c0.041-0.011,0.486-0.097,1.256-0.247c0.153-0.748,0.236-1.178,0.236-1.178
		c-0.221-0.179-0.434-0.322-0.654-0.497c-0.613,0.12-1.036,0.206-1.182,0.236L250.241,136.15z"/>
	<path style="fill:#3A3A39;" d="M314.061,127.31c0.277,0.007,0.565,0.004,0.834,0.015l0.052-1.728
		c-0.55-0.015-1.129-0.022-1.731-0.022v1.088C313.215,126.663,313.563,126.932,314.061,127.31z"/>
	<path style="fill:#3A3A39;" d="M358.629,177.936c0.011-0.251,0.022-0.452,0.026-0.542l-1.41-0.071
		c0.06,0.172,0.15,0.344,0.206,0.516L358.629,177.936z"/>
	<path style="fill:#3A3A39;" d="M344.654,239.587c0.064-0.075,0.12-0.165,0.187-0.236c-0.385-0.74-0.602-1.129-0.602-1.129
		l-0.778,0.097c-0.037,0.045-0.071,0.097-0.105,0.138L344.654,239.587z"/>
	<path style="fill:#3A3A39;" d="M383.273,300.445l0.06,0.004l0.778-1.948l-0.056-0.004
		C383.789,299.147,383.542,299.802,383.273,300.445z"/>
	<path style="fill:#3A3A39;" d="M237.919,192.925l-0.576-0.632l-1.268,1.17l0.591,0.647c0.46-0.108,0.707-0.168,0.707-0.168
		C237.538,193.721,237.725,193.355,237.919,192.925z"/>
	<polygon style="fill:#3A3A39;" points="287.323,246.636 286.373,245.6 285.632,245.697 285.221,246.894 286.059,247.803 	"/>
	<path style="fill:#3A3A39;" d="M263.023,312.011c-0.015,0.007-0.034,0.015-0.049,0.022l-0.322,0.942l1.043,0.625
		c0.041-0.019,0.09-0.041,0.131-0.064L263.023,312.011z"/>
	<path style="fill:#3A3A39;" d="M192.012,326.311c-1.185,0.168-1.892,0.266-1.952,0.277l0.236,1.702
		c0.206-0.03,0.823-0.112,1.731-0.239l0.538-1.279C192.379,326.629,192.188,326.457,192.012,326.311z"/>
	<path style="fill:#3A3A39;" d="M170.97,210.314c0.019-0.022,0.037-0.052,0.056-0.075l-1.343-1.084
		c-0.086,0.108-0.183,0.258-0.273,0.385c0.46,0.677,0.748,1.081,0.748,1.081C170.304,210.542,170.603,210.437,170.97,210.314z"/>
	<path style="fill:#3A3A39;" d="M146.386,275.274c-0.183,0.647-0.307,1.092-0.352,1.256l1.66,0.46
		c0.011-0.037,0.101-0.363,0.247-0.89c-0.464-0.639-0.774-1.073-0.774-1.073L146.386,275.274z"/>
	<path style="fill:#3A3A39;" d="M176.328,365.427c-0.344-0.352-0.587-0.606-0.606-0.628l-1.268,1.171
		c0.015,0.015,0.123,0.131,0.314,0.333c0.684,0.09,1.133,0.146,1.133,0.146L176.328,365.427z"/>
	<path style="fill:#3A3A39;" d="M104.809,288.654c-0.064-0.064-0.112-0.123-0.176-0.187l-1.129,0.359
		c0,0.337,0.034,0.658,0.037,0.995c0.022,0.022,0.041,0.049,0.064,0.071L104.809,288.654z"/>
	<path style="fill:#3A3A39;" d="M78.572,231.289l-1.724-0.056c-0.004,0.034-0.007,0.501,0.011,1.238h1.724
		C78.565,231.775,78.568,231.326,78.572,231.289z"/>
	<path style="fill:#3A3A39;" d="M144.52,155.764c0.912,0.007,1.81-0.015,2.741,0.022l0.071-1.724
		c-0.853-0.034-1.668-0.004-2.502-0.011c-0.314,0.464-0.535,0.793-0.535,0.793C144.363,155.151,144.452,155.458,144.52,155.764z"/>
	<path style="fill:#3A3A39;" d="M98.437,169.578c0.348-0.509,0.688-1.017,1.043-1.515v-1.185c-1.29,0.823-2.004,1.346-2.042,1.376
		L98.437,169.578z"/>
	<path style="fill:#3A3A39;" d="M197.064,113.702l-0.034-0.864c-0.647,0.007-1.025,0.026-1.025,0.026
		c-0.236,0.064-0.456,0.161-0.688,0.228l0.026,0.688L197.064,113.702z"/>
	<polygon style="fill:#3A3A39;" points="195.808,82.465 195.77,81.575 194.05,81.646 194.103,82.933 194.854,82.959 	"/>
	<path style="fill:#3A3A39;" d="M124.098,346.415l-1.032,0.927c0.325,0.423,0.553,0.703,0.553,0.703
		c0.213,0.179,0.456,0.337,0.677,0.509l0.954-0.856L124.098,346.415z"/>
</g>
<g>
	<path style="fill:#2A2B2A;" d="M386.032,180.132c-6.742-18.152-16.615-34.789-28.974-49.235c4.906,15.25,7.427,31.27,7.662,47.526
		L386.032,180.132z"/>
	<path style="fill:#2A2B2A;" d="M350.039,251.542c-9.427,22.157-23.305,43.207-41.711,61.613c-5.856,5.856-12,11.222-18.339,16.174
		l19.199,11.488c-1.918,5.677-10.942,31.899-15.575,38.058c-16.54,9.14-59.545,15.519-67.989,16.705
		c-20.351-5.329-37.242-18.93-45.114-26.128c-0.815,0.019-1.634,0.071-2.449,0.079c7.21,6.78,24.636,21.424,45.963,27.37l-0.31,2.55
		c3.145,0.183,6.305,0.307,9.491,0.307c24.363,0,47.455-5.381,68.21-14.966l-6.092-5.333c5.291-7.771,14.704-35.683,15.774-38.899
		c20.059-8.586,42.317-37.026,46.255-42.212l25.926,2.102c0.269-0.643,0.516-1.301,0.782-1.948l-26.05-1.84
		C357.892,277.622,353.76,261.875,350.039,251.542z"/>
</g>
<g>
</g>
<g>
</g>
<g>
</g>
<g>
</g>
<g>
</g>
<g>
</g>
<g>
</g>
<g>
</g>
<g>
</g>
<g>
</g>
<g>
</g>
<g>
</g>
<g>
</g>
<g>
</g>
<g>
</g>
</svg>
